<svg width="18" height="18" viewBox="0 0 18 18" fill="none" xmlns="http://www.w3.org/2000/svg">
<path d="M14.2245 0.650756L8.99997 5.8756C7.25855 4.13473 5.51656 2.39218 3.77485 0.650756C1.76 -1.36409 -1.36316 1.76019 0.650002 3.7756C2.39199 5.5159 4.13454 7.25874 5.87457 9.00016C4.13375 10.7424 2.39223 12.4839 0.650002 14.2247C-1.36316 16.239 1.76028 19.3625 3.77485 17.3496C5.51628 15.6076 7.25826 13.8653 8.99969 12.1244L14.2243 17.3496C16.2391 19.3639 19.3631 16.2393 17.3491 14.2247C15.6071 12.4827 13.8657 10.7413 12.1231 8.9996C13.8654 7.25761 15.6068 5.51562 17.3491 3.77392C19.3634 1.76019 16.2394 -1.36409 14.2243 0.65188" fill="white"/>
</svg>
