<svg width="28" height="28" viewBox="0 0 28 28" fill="none" xmlns="http://www.w3.org/2000/svg">
<path fill-rule="evenodd" clip-rule="evenodd" d="M6.76298 0.529069C7.17154 1.09676 7.03906 1.88568 6.46708 2.29117L2.01257 5.44912C1.44059 5.85461 0.645718 5.72312 0.237164 5.15543C-0.17139 4.58774 -0.038911 3.79883 0.533065 3.39333L4.98758 0.235386C5.55955 -0.170106 6.35443 -0.0386194 6.76298 0.529069ZM0.875 14.875C0.875 7.62623 6.75123 1.75 14 1.75C21.2487 1.75 27.125 7.62624 27.125 14.875C27.125 22.1237 21.2487 28 14 28C6.75124 28 0.875 22.1237 0.875 14.875ZM14 4.33197C8.17721 4.33197 3.45697 9.05221 3.45697 14.875C3.45697 20.6978 8.17721 25.418 14 25.418C19.8228 25.418 24.543 20.6978 24.543 14.875C24.543 9.05221 19.8228 4.33197 14 4.33197ZM23.0124 0.235386C22.4405 -0.170106 21.6456 -0.0386194 21.237 0.529069C20.8285 1.09676 20.961 1.88568 21.5329 2.29117L25.9875 5.44912C26.5594 5.85461 27.3543 5.72312 27.7629 5.15543C28.1714 4.58774 28.0389 3.79883 27.467 3.39333L23.0124 0.235386Z" fill="#CE900C"/>
<circle cx="14" cy="14.875" r="10.5" fill="white" fill-opacity="0.3"/>
<circle r="7.875" transform="matrix(-1 0 0 1 14 14.875)" fill="#F7DD40"/>
</svg>
